HIERARCHY
ROOT root
{
	OFFSET 0.000000 0.000000 0.000000
	CHANNELS 6 Xposition Yposition Zposition Zrotation Yrotation Xrotation
	JOINT lhip
	{
		OFFSET 0.058581 -0.082280 -0.017664
		CHANNELS 3 Zrotation Yrotation Xrotation
		JOINT lknee
		{
			OFFSET 0.043451 -0.386469 0.008037
			CHANNELS 3 Zrotation Yrotation Xrotation
			JOINT lankle
			{
				OFFSET -0.014790 -0.426874 -0.037428
				CHANNELS 3 Zrotation Yrotation Xrotation
				JOINT ltoe
				{
					OFFSET 0.041054 -0.060286 0.122042
					CHANNELS 3 Zrotation Yrotation Xrotation
					End Site
					{
						OFFSET 0.000000 0.000000 0.000000
					}
				}
			}
		}
	}
	JOINT rhip
	{
		OFFSET -0.060310 -0.090513 -0.013543
		CHANNELS 3 Zrotation Yrotation Xrotation
		JOINT rknee
		{
			OFFSET -0.043257 -0.383688 -0.004843
			CHANNELS 3 Zrotation Yrotation Xrotation
			JOINT rankle
			{
				OFFSET 0.019056 -0.420046 -0.034562
				CHANNELS 3 Zrotation Yrotation Xrotation
				JOINT rtoe
				{
					OFFSET -0.034840 -0.062106 0.130323
					CHANNELS 3 Zrotation Yrotation Xrotation
					End Site
					{
						OFFSET 0.000000 0.000000 0.000000
					}
				}
			}
		}
	}
	JOINT lowerback
	{
		OFFSET 0.004439 0.124404 -0.038385
		CHANNELS 3 Zrotation Yrotation Xrotation
		JOINT upperback
		{
			OFFSET 0.004488 0.137956 0.026820
			CHANNELS 3 Zrotation Yrotation Xrotation
			JOINT chest
			{
				OFFSET -0.002265 0.056032 0.002855
				CHANNELS 3 Zrotation Yrotation Xrotation
				JOINT lowerneck
				{
					OFFSET -0.013390 0.211636 -0.033468
					CHANNELS 3 Zrotation Yrotation Xrotation
					JOINT upperneck
					{
						OFFSET 0.010113 0.088937 0.050410
						CHANNELS 3 Zrotation Yrotation Xrotation
						End Site
						{
							OFFSET 0.000000 0.000000 0.000000
						}
					}
				}
				JOINT lclavicle
				{
					OFFSET 0.071702 0.114000 -0.018898
					CHANNELS 3 Zrotation Yrotation Xrotation
					JOINT lshoulder
					{
						OFFSET 0.122921 0.045205 -0.019046
						CHANNELS 3 Zrotation Yrotation Xrotation
						JOINT lelbow
						{
							OFFSET 0.255332 -0.015649 -0.022946
							CHANNELS 3 Zrotation Yrotation Xrotation
							JOINT lwrist
							{
								OFFSET 0.265709 0.012698 -0.007375
								CHANNELS 3 Zrotation Yrotation Xrotation
								End Site
								{
									OFFSET 0.000000 0.000000 0.000000
								}
							}
						}
					}
				}
				JOINT rclavicle
				{
					OFFSET -0.082954 0.112472 -0.023707
					CHANNELS 3 Zrotation Yrotation Xrotation
					JOINT rshoulder
					{
						OFFSET -0.113228 0.046853 -0.008472
						CHANNELS 3 Zrotation Yrotation Xrotation
						JOINT relbow
						{
							OFFSET -0.260127 -0.014369 -0.031269
							CHANNELS 3 Zrotation Yrotation Xrotation
							JOINT rwrist
							{
								OFFSET -0.269108 0.006794 -0.006027
								CHANNELS 3 Zrotation Yrotation Xrotation
								End Site
								{
									OFFSET 0.000000 0.000000 0.000000
								}
							}
						}
					}
				}
			}
		}
	}
}
MOTION
Frames: 8
Frame Time: 0.033333
0.132663 0.327657 1.066388 80.712244 1.036082 93.430951 -5.055613 -5.824115 2.626414 -1.454317 -15.661307 13.214206 -3.327196 8.029186 27.290981 0.000000 -0.000000 0.000000 5.214158 6.355529 -11.703181 -0.850743 14.295295 8.673995 0.690070 -6.573833 21.820023 0.000000 -0.000000 0.000000 4.193044 -2.946768 -6.689144 7.049049 -4.474433 -6.583398 4.949010 -2.592441 -3.200384 -9.424384 10.849100 -0.257265 -1.401645 13.579289 -24.954252 6.054029 1.132597 -10.473192 -8.898706 -6.010833 -10.486679 28.373778 -31.893612 -22.497402 -19.046195 -13.527501 3.413348 -8.942073 -7.219496 -12.031645 2.787553 6.619456 -23.463331 -21.925989 8.663501 -39.391797 10.146027 6.821422 1.247764 
0.133380 0.329104 1.067019 80.953634 1.265794 93.771796 -4.557728 -5.889673 2.157186 -1.518531 -15.703223 13.207286 -3.750369 7.493738 27.409451 0.000000 -0.000000 0.000000 5.325387 6.256765 -12.181328 -0.794777 13.912433 8.652414 0.447590 -6.491433 22.912477 0.000000 -0.000000 0.000000 4.154030 -3.110212 -6.413895 7.420026 -4.493397 -6.913058 5.262207 -2.454700 -3.671644 -9.329833 11.694319 -1.760698 -1.958551 13.579220 -24.822010 6.425255 1.391092 -10.145776 -9.522855 -6.035947 -10.653341 29.545145 -31.685522 -23.600714 -19.445825 -13.071064 3.604354 -8.545908 -7.302395 -11.754319 3.014780 6.798614 -23.699152 -22.108822 7.930430 -40.184693 10.423222 6.432290 1.448298 
0.133898 0.330089 1.067973 81.302785 1.351762 94.061518 -4.250326 -5.984095 1.849095 -1.585114 -16.070127 13.114517 -4.080026 7.394411 27.467600 0.000000 -0.000000 0.000000 5.580604 6.568608 -12.613962 -0.998163 13.434217 8.949139 -0.210360 -6.802694 23.348111 0.000000 -0.000000 0.000000 3.973354 -3.275179 -6.257399 7.572743 -4.394960 -7.129997 5.403791 -2.696864 -3.861012 -9.554786 12.249035 -2.558953 -2.180552 13.405195 -25.979813 6.446894 1.636883 -10.321505 -9.356799 -5.957625 -10.802611 30.306481 -31.622903 -23.980245 -18.808407 -13.386793 3.325514 -8.345670 -7.509912 -11.755635 3.992147 7.098521 -23.225033 -21.938518 7.196460 -40.179197 9.148830 6.478896 0.501468 
0.134492 0.330761 1.069007 81.806645 1.179584 94.530367 -4.208407 -6.367572 1.421839 -1.668169 -17.128587 12.795694 -4.763491 6.750246 28.594542 0.000000 -0.000000 0.000000 5.651076 6.559827 -13.193806 -1.203261 13.288219 9.279928 -1.598122 -7.303059 23.385832 0.000000 -0.000000 0.000000 3.497019 -3.369718 -6.224571 7.628471 -4.400056 -7.237152 5.537983 -2.907831 -4.216456 -9.522957 12.451510 -4.329041 -2.323655 13.363621 -25.902246 6.483037 1.856656 -10.198980 -8.973673 -5.941082 -11.010104 30.773449 -31.499046 -24.926310 -17.660262 -14.011758 2.833087 -7.725841 -7.718088 -11.761260 4.279382 7.584365 -22.790922 -21.695882 5.774232 -39.844036 7.664769 6.094832 0.213653 
0.135090 0.331476 1.069167 82.425038 1.248312 94.829111 -3.817630 -6.363223 0.890637 -1.697529 -17.805919 12.899909 -5.887468 6.668477 28.855153 0.000000 -0.000000 0.000000 6.086484 6.498626 -13.502330 -1.579596 12.554925 9.173207 -2.596637 -8.166191 23.557093 0.000000 -0.000000 0.000000 3.397984 -3.497539 -5.614869 7.424111 -4.300036 -8.090048 5.616511 -2.948722 -4.335825 -9.541270 13.165167 -5.897543 -2.051176 13.166666 -25.725930 6.563933 1.710624 -10.131175 -8.728426 -6.037074 -11.403178 31.308674 -31.378200 -25.530672 -16.345339 -14.793059 2.898259 -7.965300 -7.688944 -11.390568 5.023299 7.158269 -22.909537 -20.694332 4.294375 -39.571516 6.257534 5.797103 0.016896 
0.135561 0.331923 1.069293 82.872396 1.093043 95.249635 -3.547138 -6.466575 0.122493 -2.070286 -17.941189 13.242054 -6.460224 6.813061 28.276220 0.000000 -0.000000 0.000000 6.311394 6.424693 -13.936117 -1.762648 11.945689 9.132096 -3.894621 -8.812184 24.006897 0.000000 -0.000000 0.000000 2.884528 -3.533722 -5.500677 7.239690 -4.257735 -8.157156 5.653247 -2.902834 -4.549468 -9.474173 13.304580 -6.832333 -2.095439 13.084473 -26.407031 6.460492 1.807410 -10.447046 -8.340771 -6.427621 -11.588437 32.356098 -31.430918 -26.568211 -14.953535 -15.312247 3.264860 -7.836605 -7.936656 -11.691750 5.577352 7.325901 -22.561740 -19.918543 2.444992 -38.667620 4.799533 5.556974 0.089059 
0.136577 0.332160 1.069213 83.665545 1.098162 95.636437 -3.246294 -6.988765 -0.316678 -2.015815 -18.629847 12.993186 -7.488897 6.177519 29.325075 0.000000 -0.000000 0.000000 6.640637 6.441807 -14.101525 -2.223364 11.847836 9.076844 -4.613149 -9.232726 23.103719 0.000000 -0.000000 0.000000 2.750252 -3.625587 -5.520179 6.874363 -4.416618 -8.257611 5.594376 -2.966798 -4.775329 -9.636644 13.778413 -7.431266 -1.514469 12.917457 -26.588292 6.684456 1.712083 -10.451387 -8.263247 -6.533945 -12.181791 32.893049 -31.641437 -27.534337 -13.719988 -16.761273 4.251934 -8.185682 -7.891607 -11.370431 6.116596 7.332691 -23.032626 -18.908889 0.504647 -38.287300 3.707846 5.851023 1.140621 
0.137170 0.332140 1.068958 83.936526 1.011637 95.992006 -3.127829 -7.382470 -0.704806 -2.111649 -19.253939 12.950448 -7.974700 6.119960 29.979487 0.000000 -0.000000 0.000000 6.715539 6.374964 -14.501619 -2.230357 11.797438 9.223514 -5.486605 -9.246117 23.397761 0.000000 -0.000000 0.000000 2.425754 -3.583050 -5.204008 6.396262 -4.241579 -8.459574 5.517151 -2.847146 -4.875455 -9.417277 14.012624 -8.705923 -1.398100 13.050449 -26.621496 6.353665 1.363660 -10.513874 -7.637635 -6.297213 -12.305561 33.979093 -32.031369 -28.810715 -9.826077 -18.770397 3.710717 -8.312892 -7.703163 -10.966343 6.709023 6.589177 -22.566442 -17.897321 -0.445578 -37.511325 1.751783 6.236970 0.844534 
